<?xml version="1.0" standalone="no"?><!DOCTYPE svg PUBLIC "-//W3C//DTD SVG 1.1//EN" "http://www.w3.org/Graphics/SVG/1.1/DTD/svg11.dtd"><svg t="1697191621891" class="icon" viewBox="0 0 1024 1024" version="1.1" xmlns="http://www.w3.org/2000/svg" p-id="7359" width="48" height="48" xmlns:xlink="http://www.w3.org/1999/xlink"><path d="M464 416h259.2c20.8 0 32-24 18.4-40L568 176 464 256v160z" fill="#430D51" p-id="7360"></path><path d="M208 992l250.4-799.2c3.2-10.4 12.8-16.8 23.2-16.8H568l248 816H208z" fill="#80489B" p-id="7361"></path><path d="M807.2 961.6L568 176h-56v816h272c16 0 28-15.2 23.2-30.4z" fill="#70269B" p-id="7362"></path><path d="M228.8 824.8l-42.4 136c-4.8 15.2 6.4 31.2 23.2 31.2H816c16 0 28-15.2 23.2-31.2l-41.6-136c-3.2-10.4-12-16.8-23.2-16.8H251.2c-10.4 0-20 7.2-22.4 16.8z" fill="#B253CA" p-id="7363"></path><path d="M814.4 992.8c-10.4 0-20-6.4-23.2-16.8l-41.6-136c-4-12.8 3.2-26.4 16-29.6 12.8-4 26.4 3.2 29.6 16l41.6 136c4 12.8-3.2 26.4-16 29.6-1.6 0.8-4 0.8-6.4 0.8z" fill="#973EB5" p-id="7364"></path><path d="M592 968H432c-13.6 0-24-10.4-24-24V784c0-13.6 10.4-24 24-24h160c13.6 0 24 10.4 24 24v160c0 13.6-10.4 24-24 24z m-128-48h96c4.8 0 8-3.2 8-8v-96c0-4.8-3.2-8-8-8H464c-4.8 0-8 3.2-8 8v96c0 4.8 3.2 8 8 8z" fill="#FCCB46" p-id="7365"></path><path d="M920 1016H104c-13.6 0-24-10.4-24-24s10.4-24 24-24h816c13.6 0 24 10.4 24 24s-10.4 24-24 24z" fill="#444B54" p-id="7366"></path></svg>