<?xml version="1.0" standalone="no"?><!DOCTYPE svg PUBLIC "-//W3C//DTD SVG 1.1//EN" "http://www.w3.org/Graphics/SVG/1.1/DTD/svg11.dtd"><svg t="1697633497501" class="icon" viewBox="0 0 1024 1024" version="1.1" xmlns="http://www.w3.org/2000/svg" p-id="5778" width="98" height="98" xmlns:xlink="http://www.w3.org/1999/xlink"><path d="M804.4 252.915v526.4l-292.4-8.2-292.4 8.2v-525.9c77.5-20.6 177.1-4.9 298.7 47.2l-6.4-2.7 5.8-2.4c116.2-48.3 211.7-62.6 286.7-42.6z" fill="#515151" opacity=".4" p-id="5779"></path><path d="M858.5 155.015l10.3 3.3 13.9 4.7v77.5c13.9 2.7 27.8 6.1 41.7 10.3l14.4 4.6 13.9 4.7v663.9l-37.2-10.6c-157.6-43.8-261.3-43.9-318-3.4l-4 3c-2.8 2.1-5.8 3.5-9.2 4.1l-0.7 0.1h-0.1l-1.7 0.1H438.1l-5.6-4.3c-55.7-43.5-164.6-44.5-326 0.3l-11.3 3.2-26.3 7.5 1.2-188.7c0.9-171.2 0.8-303-0.1-395.2l-0.9-65-0.3-15 14.2-4.8c18.3-6.2 36.6-11 54.9-14.6-0.1-4.6-0.1-9.1-0.2-13.5l-0.7-49.1-0.3-15 14.2-4.8c119.8-40.4 239.9-25.7 358.9 43.5 115.7-67.2 232.3-83 348.7-46.8z m24.2 127.3v544.7l-37.2-10.7c-155.3-43.2-258.3-43.9-315.5-5.1-0.2 0.4-0.5 0.8-0.7 1.2-4.3 5.5-10.7 8.2-17.1 7.9h-1.7c-1.6 0-3.2-0.3-4.7-0.7-0.5-0.1-1-0.3-1.4-0.4-0.4-0.1-0.8-0.3-1.1-0.4-0.4-0.1-0.7-0.3-1.1-0.5-0.5-0.2-0.9-0.5-1.4-0.7l-0.9-0.6c-0.4-0.3-0.9-0.6-1.3-0.9-0.2-0.2-0.5-0.4-0.7-0.6l-1.6-1.5-1.4-1.7c-0.3-0.4-0.6-0.8-0.8-1.1-57.4-38.8-164.1-38.1-319.5 5l-37.7 10.7 1.7-303c0.3-96.2 0.2-176.7-0.2-241.5-6.1 1.3-12.1 2.8-18.2 4.4l-9.7 2.8 1 88.1c0.5 78.9 0.5 181 0 306.3l-1.1 185.8 8.1-2.1c153.3-39.8 263.2-38.6 330 6.1l3.6 2.5h122.4c64.6-45.9 168.4-48.9 317.8-11.5l11.6 3 8.2 2.2v-580.3l-12.3-3.4c-5.8-1.5-11.5-2.8-17.1-4z m-351.2-45.7v527c65.1-30.2 160.3-28.3 289.9 4l12.3 3.1 8.2 2.2v-580.2l-5.4-1.6c-101.5-28.6-202.8-13.7-305 45.5z m-348.2-45.5l-5.1 1.5 1 88.1c0.5 78.9 0.5 181 0 306.3l-1.1 185.8 8.1-2.1c135-35 236.3-38.3 304.3-8v-522.5l-1.3-1.8c-0.3-0.6-0.7-1.1-0.9-1.7-102.3-59.3-203.5-74.2-305-45.6z" fill="#515151" p-id="5780"></path><path d="M776.9 602.115c1.6 10.3-4.7 20.1-14.5 22.9l-2.5 0.6-145.7 23.3c-11.2 1.8-21.7-5.8-23.5-17-1.6-10.3 4.7-20.1 14.5-22.9l2.5-0.6 145.7-23.3c11.2-1.8 21.7 5.8 23.5 17z m0-105.7c1.6 10.3-4.7 20.1-14.5 22.9l-2.5 0.6-145.7 23.3c-11.2 1.8-21.7-5.8-23.5-17-1.6-10.3 4.7-20.1 14.5-22.9l2.5-0.6 145.7-23.3c11.2-1.8 21.7 5.8 23.5 17z m0-104.8c1.6 10.3-4.7 20.1-14.5 22.9l-2.5 0.6-145.7 23.3c-11.2 1.8-21.7-5.8-23.5-17-1.6-10.3 4.7-20.1 14.5-22.9l2.5-0.6 145.7-23.3c11.2-1.8 21.7 5.8 23.5 17z" fill="#515151" p-id="5781"></path><path d="M776.9 568.015c1.6 10.3-4.7 20.1-14.5 22.9l-2.5 0.6-145.7 23.3c-11.2 1.8-21.7-5.8-23.5-17-1.6-10.3 4.7-20.1 14.5-22.9l2.5-0.6 145.7-23.3c11.2-1.8 21.7 5.8 23.5 17z m0-105.7c1.6 10.3-4.7 20.1-14.5 22.9l-2.5 0.6-145.7 23.3c-11.2 1.8-21.7-5.8-23.5-17-1.6-10.3 4.7-20.1 14.5-22.9l2.5-0.6 145.7-23.3c11.2-1.8 21.7 5.8 23.5 17z m0-104.8c1.6 10.3-4.7 20.1-14.5 22.9l-2.5 0.6-145.7 23.3c-11.2 1.8-21.7-5.8-23.5-17-1.6-10.3 4.7-20.1 14.5-22.9l2.5-0.6 145.7-23.3c11.2-1.8 21.7 5.8 23.5 17z" fill="#515151" p-id="5782"></path></svg>